<svg width="216" height="72" viewBox="0 0 216 72" fill="none" xmlns="http://www.w3.org/2000/svg">
<path fill-rule="evenodd" clip-rule="evenodd" d="M109.383 6.34324C109.383 9.83217 109.33 12.7396 109.264 12.8047C109.198 12.8697 109.011 12.7733 108.849 12.5905C108.444 12.1354 107.056 11.2905 106.712 11.2905C106.558 11.2905 106.432 11.2203 106.432 11.1348C106.432 11.0492 105.697 10.8751 104.799 10.748C103.496 10.5635 102.843 10.562 101.571 10.7403C100.694 10.8632 99.9761 11.0373 99.9761 11.1271C99.9761 11.2169 99.8499 11.2905 99.6957 11.2905C99.0337 11.2905 96.1025 13.6602 96.1025 14.1954C96.1025 14.3005 96.0278 14.3862 95.9363 14.3862C95.845 14.3862 95.6166 14.7546 95.429 15.205C95.2414 15.6553 95.0258 16.0241 94.9496 16.0244C94.8734 16.0248 94.8113 16.23 94.8113 16.4804C94.8113 16.7308 94.7373 16.9357 94.6469 16.9357C94.5567 16.9357 94.4424 17.2021 94.3929 17.5275C94.3435 17.8529 94.2002 18.611 94.0744 19.212C93.8298 20.3813 93.9203 23.5253 94.2265 24.493C94.3215 24.7935 94.5093 25.4081 94.6436 25.8588C94.7781 26.3095 94.933 26.7192 94.9882 26.7693C95.0433 26.8194 95.2901 27.2679 95.5367 27.7662C95.7834 28.2644 96.4474 29.1367 97.0122 29.7047C97.9284 30.6259 98.5204 31.006 100.419 31.8917C101.157 32.2359 104.891 32.2333 105.62 31.8881C107.34 31.0744 108.073 30.6325 108.719 30.0193C109.117 29.642 109.512 29.3758 109.597 29.4279C109.683 29.4798 109.752 30.0091 109.752 30.6042V31.6861H112.611H115.471V15.8431V0H112.427H109.383V6.34324ZM25.5782 2.12461C25.5105 2.19126 25.4552 8.86993 25.4552 16.9661V31.6861H28.5909H31.7267V24.7662V17.8462H36.4304H41.1341V24.7662V31.6861H44.1776H47.2212V16.8446V2.00315H44.1776H41.1341V7.10206V12.201H36.4304H31.7267V7.10206V2.00315H28.714C27.0568 2.00315 25.6457 2.05778 25.5782 2.12461ZM7.56277 13.7454V19.6603L8.02391 19.7745C8.27754 19.8373 8.69257 19.8373 8.9462 19.7745L9.40734 19.6603V17.2183V14.7763L10.0286 14.126C10.8087 13.3096 11.5592 13.2565 12.3603 13.961L12.912 14.4465V17.0373C12.912 19.8255 12.9205 19.8494 13.9266 19.8494C14.9143 19.8494 14.9411 19.7865 14.9411 17.4651C14.9411 15.5284 14.6839 13.7252 14.3722 13.4757C14.3097 13.4256 14.1601 13.2002 14.04 12.9749C13.9197 12.7497 13.7067 12.5652 13.5665 12.5652C13.4263 12.5652 13.2771 12.4628 13.2348 12.3376C13.1832 12.1848 12.7388 12.1099 11.8822 12.1099C10.8433 12.1099 10.4949 12.1884 10.0068 12.532L9.40734 12.9542V10.3923V7.83048H8.48506H7.56277V13.7454ZM0.123033 8.68036C0.0553373 8.74701 0 9.07334 0 9.40532C0 10.0644 0.156051 10.1474 1.56789 10.2403L2.30572 10.2889L2.35516 14.9238C2.39168 18.3532 2.46362 19.5957 2.63184 19.7013C2.75672 19.7796 3.16898 19.845 3.54768 19.8466L4.23644 19.8494L4.28551 15.0691L4.33476 10.2889L5.16482 10.2408C6.71758 10.151 6.82494 10.0891 6.82494 9.28385V8.5589H3.5355C1.72616 8.5589 0.190545 8.61353 0.123033 8.68036ZM125.247 10.6607C124.689 10.7875 124.004 10.8991 123.725 10.9088C123.446 10.9184 123.218 11.0082 123.218 11.1084C123.218 11.2085 123.092 11.2905 122.937 11.2905C122.624 11.2905 121.131 12.1695 121.035 12.4102C121.001 12.4954 120.877 12.5676 120.758 12.5705C120.441 12.5785 119.447 13.5209 119.047 14.1927C118.704 14.7692 118.704 14.781 119.067 15.0309C119.27 15.1704 119.522 15.3552 119.626 15.4417C119.73 15.5282 120.062 15.7544 120.363 15.9439C120.665 16.1337 121.046 16.4345 121.21 16.6123C121.374 16.7902 121.567 16.9357 121.639 16.9357C121.71 16.9357 121.884 17.0382 122.026 17.1633C122.832 17.877 122.807 17.8755 123.441 17.2507C124.307 16.3985 124.897 16.0252 125.38 16.0252C125.611 16.0252 125.8 15.9432 125.8 15.8431C125.8 15.7429 126.257 15.661 126.815 15.661C127.373 15.661 127.829 15.7429 127.829 15.8431C127.829 15.9432 128.018 16.0252 128.249 16.0252C129.065 16.0252 130.3 17.1579 130.486 18.0768C130.546 18.3756 130.596 18.9062 130.596 19.2561C130.596 19.8617 130.572 19.8852 130.089 19.7538C129.81 19.6778 128.109 19.5813 126.309 19.5391C123.147 19.4648 122.988 19.4786 121.623 19.9437C120.846 20.2085 120.092 20.5414 119.948 20.6836C119.805 20.8256 119.626 20.942 119.551 20.942C119.057 20.942 117.131 23.294 117.131 23.8979C117.131 24.0749 117.048 24.2199 116.946 24.2199C116.715 24.2199 116.696 27.7399 116.925 28.1832C117.014 28.3571 117.188 28.7135 117.311 28.9753C117.802 30.0202 119.902 31.6861 120.727 31.6861C120.863 31.6861 121.006 31.7832 121.047 31.9021C121.144 32.1918 125.937 32.2224 126.556 31.9373C128.736 30.9333 129.326 30.5844 130.089 29.8485C130.571 29.3836 130.965 28.9103 130.965 28.7969C130.965 28.6832 131.131 28.5904 131.334 28.5904C131.537 28.5904 131.703 28.6936 131.703 28.8198C131.703 28.946 131.91 29.2703 132.164 29.5404C132.418 29.8103 132.625 30.0971 132.625 30.1776C132.625 30.3413 133.077 30.6439 134.249 31.2653C134.94 31.6317 135.304 31.6861 137.062 31.6861H139.081V29.0456V26.4051H138.28C136.929 26.4051 136.907 26.3372 136.8 21.7614C136.702 17.5361 136.569 16.0252 136.296 16.0252C136.205 16.0252 136.13 15.9088 136.13 15.7668C136.13 15.4628 135.546 14.3225 135.346 14.2345C135.27 14.201 135.208 14.0776 135.208 13.9601C135.208 13.4795 132.265 11.2905 131.619 11.2905C131.462 11.2905 131.334 11.2244 131.334 11.1437C131.334 10.9716 127.624 10.3639 126.815 10.4032C126.51 10.4182 125.805 10.534 125.247 10.6607ZM57.7353 10.7611C57.0758 10.845 56.3703 10.9913 56.1674 11.086C55.9645 11.1805 55.4045 11.4086 54.923 11.5929C54.4414 11.777 54.0472 11.9894 54.0469 12.0644C54.0465 12.1394 53.9216 12.201 53.7694 12.201C53.6173 12.201 53.4927 12.2829 53.4927 12.3831C53.4927 12.4832 53.3891 12.5666 53.2622 12.5685C52.7715 12.5752 50.1725 15.3197 50.1725 15.8309C50.1725 15.9378 50.103 16.0252 50.0179 16.0252C49.9331 16.0252 49.7084 16.4965 49.519 17.0723C49.3295 17.6481 49.1086 18.1973 49.0279 18.2924C48.9473 18.3876 48.8793 18.7564 48.8769 19.1118C48.8745 19.4675 48.7961 20.0837 48.7027 20.4813C48.5223 21.2496 48.7719 23.8751 49.0796 24.4449C49.1735 24.6188 49.2502 24.8567 49.2502 24.9732C49.2502 25.2637 50.197 27.1685 50.489 27.4651C50.6193 27.5975 50.7259 27.7658 50.7259 27.839C50.7259 28.0703 52.4974 29.7691 53.2408 30.2508C54.2215 30.8861 55.98 31.6861 56.3957 31.6861C56.5846 31.6861 56.837 31.7826 56.9563 31.9005C57.2575 32.1978 62.2711 32.1978 62.5723 31.9005C62.6917 31.7826 63.0168 31.6861 63.295 31.6861C63.5732 31.6861 63.8462 31.6133 63.9021 31.5242C63.9578 31.4352 64.2114 31.3106 64.4658 31.2476C65.2853 31.0446 67.4577 29.5293 68.3128 28.5643C69.1969 27.5666 70.1721 25.8309 70.5079 24.6582C70.777 23.7172 70.9033 19.1492 70.6731 18.673C70.5745 18.4686 70.4507 18.1376 70.3981 17.9373C70.1843 17.1218 69.7625 16.1559 69.476 15.8256C69.3085 15.6326 69.1717 15.4031 69.1717 15.3153C69.1717 14.7124 65.4043 11.6547 64.6613 11.6547C64.5043 11.6547 64.3757 11.5727 64.3757 11.4726C64.3757 11.3724 64.2263 11.2905 64.0437 11.2905C63.8611 11.2905 63.6329 11.2171 63.5365 11.1273C63.3295 10.9346 60.5484 10.552 59.5966 10.5852C59.2323 10.5979 58.3947 10.677 57.7353 10.7611ZM82.5448 10.7913C82.0376 10.8938 81.581 11.0277 81.5303 11.0887C81.4796 11.1499 81.1891 11.3227 80.8847 11.4729C80.5804 11.623 80.1139 11.9506 79.8481 12.201C79.1444 12.864 78.4045 13.4757 78.3065 13.4757C78.2599 13.4757 78.2398 12.9227 78.2619 12.2465L78.3023 11.0173L75.3049 10.9672L72.3074 10.9171V21.3016V31.6861H75.3388H78.3704L78.4285 24.8268C78.4735 19.5425 78.5397 17.95 78.7173 17.8916C78.8442 17.85 78.9479 17.7013 78.9479 17.5612C78.9479 17.4212 79.229 17.0388 79.5725 16.7113C80.5132 15.8148 80.7432 15.661 81.1428 15.661C81.344 15.661 81.5598 15.579 81.6226 15.4789C81.6853 15.3787 81.9406 15.2968 82.1898 15.2968C82.7734 15.2968 84.1127 15.7081 84.1127 15.8873C84.1127 15.9633 84.2166 16.0279 84.3433 16.0312C84.6512 16.0394 85.4039 16.6696 85.4039 16.9193C85.4039 17.0286 85.4661 17.1185 85.5423 17.1193C85.6185 17.12 85.8038 17.3454 85.9544 17.62C86.179 18.0301 86.2382 19.3315 86.2855 24.9027L86.343 31.6861H89.3908H92.4386L92.3799 24.0467C92.3351 18.2419 92.2658 16.3526 92.0905 16.1798C91.9638 16.0547 91.86 15.7638 91.86 15.5335C91.86 15.3031 91.7769 15.1146 91.6755 15.1146C91.574 15.1146 91.491 14.9888 91.491 14.8351C91.491 14.564 91.0434 13.7709 90.6634 13.3692C90.5606 13.2605 90.3116 12.9533 90.11 12.6863C89.9084 12.4193 89.6741 12.201 89.5895 12.201C89.5048 12.201 89.32 12.0986 89.1785 11.9734C89.0372 11.8482 88.8147 11.6638 88.6845 11.5636C87.5215 10.6698 84.8257 10.3308 82.5448 10.7913ZM18.123 12.1416C17.7933 12.187 17.5235 12.3008 17.5235 12.3946C17.5235 12.4885 17.4145 12.5652 17.2813 12.5652C16.9399 12.5652 16.1502 13.4437 15.7785 14.2373C15.3996 15.046 15.3548 16.7041 15.6898 17.5232C16.0772 18.4703 17.1525 19.4176 18.2383 19.7681C19.0825 20.0407 19.3533 20.0528 20.259 19.8579C22.3863 19.4003 23.4274 18.1926 22.1462 17.6687C21.6721 17.4749 21.5537 17.4935 21.2027 17.8163C20.162 18.7735 17.5235 18.3379 17.5235 17.2088C17.5235 17.0586 17.4405 16.9357 17.339 16.9357C17.2376 16.9357 17.1546 16.815 17.1546 16.6673C17.1546 16.4447 17.6353 16.3903 19.9676 16.3486L22.7805 16.2983L22.7455 15.1183C22.7261 14.4693 22.6224 13.9093 22.5149 13.874C22.4074 13.8385 22.3194 13.7077 22.3194 13.5833C22.3194 13.3096 21.5465 12.5652 21.2623 12.5652C21.1505 12.5652 21.0313 12.4891 20.9974 12.396C20.9247 12.1957 18.9805 12.0238 18.123 12.1416ZM20.4765 13.961C20.7799 14.228 21.0282 14.5967 21.0282 14.7805C21.0282 15.0808 20.8535 15.1146 19.3066 15.1146C18.3596 15.1146 17.5318 15.0622 17.4669 14.9981C17.2955 14.8287 17.9289 13.8399 18.2089 13.8399C18.3392 13.8399 18.4458 13.758 18.4458 13.6578C18.4458 13.5577 18.7785 13.4757 19.1853 13.4757C19.7252 13.4757 20.0734 13.6066 20.4765 13.961ZM62.1174 16.3479C62.1589 16.4708 62.2864 16.5715 62.4006 16.5715C62.7475 16.5715 64.3757 18.3763 64.3757 18.7611C64.3757 18.959 64.4434 19.1209 64.5265 19.1209C64.6093 19.1209 64.7836 19.6507 64.914 20.2982C65.2458 21.9465 64.8825 23.5002 63.8261 24.9483C63.2022 25.8034 62.9639 26.0409 62.7287 26.0409C62.6201 26.0409 62.5312 26.1228 62.5312 26.223C62.5312 26.3232 62.3818 26.4051 62.1992 26.4051C62.0165 26.4051 61.7633 26.5076 61.6364 26.6327C61.4853 26.7817 60.8509 26.8569 59.801 26.8504C58.5035 26.8422 58.0651 26.7648 57.5099 26.4466C56.4256 25.8247 55.7879 25.1808 55.3417 24.2568C55.1141 23.7859 54.854 23.2582 54.7638 23.0843C54.3719 22.33 54.7303 18.7567 55.1977 18.7567C55.2746 18.7567 55.3373 18.6469 55.3373 18.5129C55.3373 18.1804 56.3002 16.9506 56.5671 16.9422C56.6853 16.9386 56.8098 16.8741 56.8438 16.7991C56.8775 16.7241 57.1542 16.5165 57.4586 16.338C57.9177 16.0687 58.3554 16.0228 60.027 16.0689C61.4134 16.1069 62.0656 16.194 62.1174 16.3479ZM107.129 16.5438C108.03 17.1336 108.826 18.16 109.181 19.1887C109.459 19.9949 109.5 22.9154 109.24 23.4246C108.573 24.7356 108.321 25.1118 107.735 25.6767C106.782 26.5958 106.318 26.8056 105.013 26.9092C103.842 27.0019 102.19 26.5916 102.19 26.2079C102.19 26.1161 102.101 26.0409 101.992 26.0409C101.78 26.0409 101.267 25.5937 101.267 25.409C101.267 25.3474 101.117 25.1377 100.933 24.9426C100.42 24.3989 99.9761 22.7725 99.9761 21.434C99.9761 20.246 100.466 18.2104 100.752 18.2104C100.833 18.2104 100.898 18.103 100.898 17.9719C100.898 17.6324 101.894 16.6709 102.603 16.3258C103.01 16.1281 103.711 16.0325 104.772 16.0301C106.189 16.027 106.416 16.0765 107.129 16.5438ZM129.625 23.3472C130.108 23.4681 130.532 23.5843 130.566 23.6054C130.78 23.7387 129.705 25.4625 129.059 26.0214C128.159 26.7999 127.939 26.9514 127.709 26.9514C127.572 26.9514 127.46 27.0334 127.46 27.1335C127.46 27.2337 127.216 27.3156 126.918 27.3156C126.619 27.3156 126.324 27.3976 126.261 27.4977C126.199 27.5979 125.779 27.6798 125.328 27.6798C124.878 27.6798 124.509 27.5979 124.509 27.4977C124.509 27.3976 124.332 27.3156 124.115 27.3156C123.511 27.3156 122.849 26.4342 122.849 25.6295C122.849 24.9129 123.582 23.8556 124.078 23.8556C124.214 23.8556 124.325 23.7881 124.325 23.7056C124.325 23.209 128.062 22.9561 129.625 23.3472ZM10.6063 24.5613C9.99761 24.7225 9.4719 24.9164 9.43815 24.9923C9.40421 25.0683 9.25738 25.1304 9.11166 25.1304C8.02612 25.1304 4.61144 28.5131 4.61144 29.5883C4.61144 29.7405 4.53784 29.8651 4.44783 29.8651C4.21301 29.8651 4.0328 30.8188 3.9319 32.5952C3.84963 34.0429 4.01214 35.0955 4.44488 35.9175C4.53655 36.0914 4.61144 36.3578 4.61144 36.5093C4.61144 36.661 4.68541 36.785 4.77598 36.785C4.86636 36.785 4.99253 36.9899 5.05617 37.2403C5.11981 37.4907 5.25336 37.6956 5.35278 37.6956C5.45239 37.6956 5.53373 37.7888 5.53373 37.9028C5.53373 38.1372 8.12112 40.6894 8.9237 41.2466C9.21219 41.4469 9.55768 41.7133 9.69123 41.8384C9.82496 41.9637 10.0164 42.0661 10.1166 42.0661C10.2169 42.0661 10.3265 42.1274 10.3604 42.2026C10.4488 42.3991 11.9464 43.3408 12.1703 43.3408C12.2738 43.3408 12.3587 43.4042 12.3587 43.4816C12.3587 43.559 12.6492 43.7766 13.0043 43.9654C13.3594 44.1543 13.6499 44.3777 13.6499 44.462C13.6499 44.5465 13.7364 44.6155 13.8421 44.6155C14.0715 44.6155 14.2835 44.7838 15.5804 45.9962C17.1269 47.442 17.4855 48.6601 16.7986 50.1342C16.162 51.5 14.8972 52.2639 13.2725 52.2639C12.16 52.2639 10.6985 51.9285 10.6985 51.6733C10.6985 51.5974 10.575 51.5355 10.4239 51.5355C10.273 51.5355 9.96754 51.392 9.74527 51.2168C9.00855 50.6357 8.11614 49.7707 8.11614 49.6376C8.11614 49.5653 7.99348 49.3852 7.84351 49.2371C7.69355 49.0891 7.49157 48.8287 7.39473 48.6584C7.23074 48.3698 7.17688 48.3729 6.60672 48.7038C6.27027 48.899 5.83403 49.2064 5.63721 49.3867C5.44058 49.5669 5.22513 49.7144 5.15818 49.7144C5.0914 49.7144 4.84755 49.8765 4.61642 50.0745C4.38511 50.2724 3.77069 50.7011 3.25088 51.0272C2.73108 51.3532 2.27805 51.6828 2.2443 51.7598C2.21036 51.8367 2.06519 51.8997 1.9215 51.8997C0.992752 51.8997 3.01238 54.6848 4.98036 56.1181C6.34682 57.1133 8.62119 58.0912 9.56948 58.0912C9.77276 58.0912 9.99023 58.1732 10.0529 58.2733C10.1977 58.5046 15.504 58.5177 16.0853 58.2881C16.3182 58.1959 17.0271 57.9707 17.6602 57.7873C18.2934 57.6039 18.8123 57.3925 18.813 57.3173C18.814 57.2421 18.9392 57.1807 19.0914 57.1807C19.2436 57.1807 19.3681 57.1042 19.3681 57.0108C19.3681 56.9174 19.5287 56.7906 19.7248 56.7293C20.1527 56.5952 22.3194 54.5684 22.3194 54.3022C22.3194 54.1995 22.3817 54.088 22.4577 54.0545C22.7001 53.9482 23.6106 52.0011 23.6106 51.5892C23.6106 51.3712 23.6936 51.1421 23.795 51.0802C23.902 51.015 23.9795 50.0196 23.9795 48.7129C23.9795 47.4061 23.902 46.4107 23.795 46.3455C23.6936 46.2836 23.6106 45.9921 23.6106 45.6974C23.6106 45.4028 23.5482 45.1615 23.4722 45.1611C23.3962 45.1607 23.1734 44.7754 22.9775 44.305C22.7815 43.8345 22.4909 43.2905 22.3319 43.0964C21.5662 42.1619 19.5383 40.251 18.6302 39.6088C18.0722 39.2141 17.5742 38.8414 17.5235 38.7805C17.4728 38.7195 17.1614 38.5149 16.8318 38.3255C16.5021 38.1361 16.2323 37.917 16.2323 37.8383C16.2323 37.7598 16.0733 37.6956 15.8787 37.6956C15.6843 37.6956 15.4976 37.634 15.4636 37.559C15.4299 37.484 14.7826 37.0127 14.0254 36.5119C11.5766 34.8924 10.7434 33.7694 10.9773 32.4031C11.2536 30.7885 13.155 29.923 14.7262 30.6969C15.0449 30.8539 15.6793 31.3511 16.1356 31.8016C16.6521 32.3115 17.0505 32.5692 17.1904 32.4837C17.5609 32.2578 18.0933 31.8141 18.8038 31.1398C19.1733 30.7893 19.8869 30.1774 20.3901 29.7802C21.4912 28.9109 21.579 28.7972 21.4368 28.4248C21.1204 27.5961 18.1368 25.1304 17.4503 25.1304C17.3045 25.1304 17.1577 25.065 17.1238 24.9852C17.0138 24.7256 14.1339 24.2193 12.9078 24.2441C12.2508 24.2574 11.215 24.4001 10.6063 24.5613ZM141.418 26.5266C141.35 26.5932 141.295 28.4693 141.295 30.6955C141.295 35.3273 141.453 34.964 139.435 34.964H138.159V38.0598V41.1555H139.727H141.295V49.6234V58.0912H144.707H148.12V49.6234V41.1555H149.76C151.086 41.1555 151.422 41.1004 151.512 40.8675C151.574 40.709 151.624 39.3159 151.624 37.7717V34.964H150.164C149.36 34.964 148.572 34.9143 148.411 34.8535C148.157 34.7571 148.12 34.2075 148.12 30.574V26.4051H144.83C143.021 26.4051 141.485 26.4597 141.418 26.5266ZM63.3612 34.4177C63.2985 34.5178 62.9409 34.6023 62.5664 34.6054C62.192 34.6085 61.4705 34.8127 60.9633 35.0591C60.456 35.3055 59.9753 35.5078 59.8949 35.5087C59.7564 35.5103 59.5247 35.6764 58.9411 36.1932C58.7996 36.3185 58.595 36.4208 58.4862 36.4208C58.3776 36.4208 58.2886 36.5028 58.2886 36.6029C58.2886 36.7031 58.2056 36.785 58.1042 36.785C58.0027 36.785 57.9197 36.3753 57.9197 35.8745V34.964H54.4141H50.9085L50.9555 52.4915L51.0026 70.0191L54.2767 70.0688L57.5508 70.1185V62.7391C57.5508 58.6803 57.5894 55.3597 57.6368 55.3597C57.684 55.3597 57.9616 55.5851 58.2536 55.8605C59.1563 56.7116 59.7591 57.1807 59.9502 57.1807C60.0508 57.1807 60.1332 57.2627 60.1332 57.3628C60.1332 57.463 60.2657 57.5449 60.4276 57.5449C60.5894 57.5449 60.9838 57.6795 61.3038 57.8441C61.6238 58.0086 62.044 58.2224 62.2375 58.3189C62.7359 58.5674 67.1253 58.5454 67.3811 58.2928C67.4935 58.1819 67.727 58.0912 67.9004 58.0912C68.2446 58.0912 69.9774 57.253 70.5353 56.8165C71.6024 55.9817 73.0453 54.3138 73.0453 53.915C73.0453 53.8081 73.1283 53.7207 73.2297 53.7207C73.3312 53.7207 73.4142 53.5978 73.4142 53.4476C73.4142 53.2973 73.4765 53.1744 73.5525 53.1744C73.6287 53.1744 73.8513 52.6623 74.0474 52.0363C74.2437 51.4104 74.4621 50.8162 74.5329 50.716C74.9341 50.1489 75.2523 44.1721 74.8998 43.8241C74.793 43.7187 74.7054 43.4289 74.7054 43.1807C74.7054 42.5692 73.9 40.1574 73.6034 39.8808C73.5498 39.8307 73.3815 39.545 73.2293 39.246C72.8569 38.513 72.5489 38.1248 71.5692 37.1533C70.4191 36.0127 69.7702 35.5103 69.4469 35.5103C69.2956 35.5103 69.1717 35.432 69.1717 35.3364C69.1717 35.2408 68.8802 35.1086 68.524 35.0427C68.1678 34.9768 67.8308 34.85 67.7753 34.7613C67.7198 34.6725 67.352 34.5998 66.9582 34.5998C66.5643 34.5998 66.1908 34.5178 66.1281 34.4177C66.0654 34.3175 65.4428 34.2356 64.7447 34.2356C64.0465 34.2356 63.4239 34.3175 63.3612 34.4177ZM87.1644 34.4048C87.0973 34.512 86.7359 34.6025 86.3615 34.6058C85.716 34.6115 83.8733 35.1397 83.6173 35.3925C83.5516 35.4573 83.3458 35.5103 83.1596 35.5103C82.9737 35.5103 82.8215 35.5792 82.8215 35.6631C82.8215 35.7472 82.6348 35.9038 82.4065 36.0111C81.0533 36.6472 79.0903 38.6871 78.3322 40.245C78.1129 40.6957 77.8712 41.0918 77.7951 41.1251C77.7189 41.1586 77.6567 41.3839 77.6567 41.6259C77.6567 41.8679 77.5824 42.0661 77.4916 42.0661C77.4009 42.0661 77.2861 42.3735 77.2365 42.749C77.1871 43.1246 77.0458 43.9645 76.9227 44.6155C76.6059 46.2918 76.8789 49.3167 77.4734 50.716C77.5584 50.9163 77.7703 51.4694 77.9441 51.9452C78.118 52.4211 78.3117 52.8102 78.3746 52.8102C78.4375 52.8102 78.596 53.0491 78.7269 53.341C78.9937 53.9358 80.9869 56.0178 81.7491 56.4976C82.7758 57.1441 83.4977 57.491 84.4816 57.811C85.0396 57.9925 85.6622 58.2052 85.8651 58.2839C87.143 58.779 92.4965 58.5141 94.0734 57.8776C95.8437 57.1634 98.6452 55.2409 98.6746 54.7205C98.6803 54.6192 98.8793 54.3295 99.1169 54.0766C99.4681 53.7027 99.5041 53.5752 99.3091 53.3955C99.1772 53.2738 99.0012 53.1744 98.9179 53.1744C98.8345 53.1744 98.6467 53.0105 98.5004 52.8102C98.3542 52.6099 98.1321 52.446 98.007 52.446C97.8818 52.446 97.5719 52.2411 97.3182 51.9907C97.0646 51.7404 96.8062 51.5355 96.7442 51.5355C96.682 51.5355 96.3592 51.3306 96.0267 51.0802C95.6941 50.8298 95.3016 50.625 95.1542 50.625C95.0068 50.625 94.5706 50.944 94.1849 51.3341C93.5411 51.9847 92.7929 52.43 91.4363 52.9694C90.7977 53.2232 87.6812 53.2414 87.5252 52.9923C87.4625 52.8922 87.2502 52.8102 87.0532 52.8102C86.8562 52.8102 86.6951 52.7283 86.6951 52.6281C86.6951 52.528 86.5795 52.446 86.438 52.446C85.8343 52.446 84.1127 50.2995 84.1127 49.5467C84.1127 49.3502 84.0297 49.139 83.9283 49.0771C83.8268 49.0152 83.7438 48.7646 83.7438 48.52V48.0755H91.86H99.9761V45.9921C99.9761 44.7994 99.8971 43.8605 99.7916 43.7961C99.6902 43.7341 99.6072 43.3654 99.6072 42.9766C99.6072 42.5878 99.5242 42.219 99.4227 42.1571C99.3213 42.0952 99.2383 41.8585 99.2383 41.6308C99.2383 41.4034 99.0311 40.8141 98.7779 40.3213C98.5246 39.8287 98.3171 39.3232 98.3167 39.1979C98.3163 39.0728 98.2385 38.9703 98.1439 38.9703C98.0492 38.9703 97.9223 38.8161 97.8616 38.6274C97.7085 38.1512 96.1357 36.5547 95.4108 36.1393C95.081 35.9505 94.8113 35.7318 94.8113 35.6531C94.8113 35.5746 94.6591 35.5103 94.4732 35.5103C94.287 35.5103 94.074 35.4502 93.9997 35.3768C93.3524 34.7378 87.4787 33.9025 87.1644 34.4048ZM114.272 34.4177C114.209 34.5178 113.993 34.5998 113.792 34.5998C112.889 34.5998 110.467 36.4605 109.625 37.801C109.444 38.0885 109.403 37.8675 109.394 36.5574L109.383 34.964H105.971H102.559V46.5276V58.0912H105.971H109.383L109.383 51.7631C109.382 46.2623 109.423 45.3219 109.696 44.57C109.868 44.0942 110.076 43.705 110.158 43.705C110.239 43.705 110.306 43.585 110.306 43.438C110.306 42.7845 112.606 41.1555 113.529 41.1555C113.773 41.1555 114.024 41.0736 114.087 40.9734C114.15 40.8733 114.57 40.7913 115.02 40.7913H115.839V37.5135V34.2356H115.113C114.713 34.2356 114.334 34.3175 114.272 34.4177ZM125.8 34.4177C125.8 34.5178 125.489 34.6025 125.108 34.6058C124.728 34.6091 123.96 34.7768 123.402 34.9786C122.844 35.1803 122.242 35.3921 122.065 35.4491C121.887 35.5061 121.742 35.6196 121.742 35.7013C121.742 35.7831 121.592 35.8971 121.407 35.9548C120.969 36.0921 119.713 37.2319 119.713 37.4925C119.713 37.6041 119.642 37.6956 119.555 37.6956C119.468 37.6956 119.177 38.1129 118.909 38.6228C118.481 39.4372 118.422 39.7637 118.422 41.3029C118.422 43.007 118.792 44.6155 119.185 44.6155C119.272 44.6155 119.344 44.7089 119.344 44.8231C119.344 44.9373 119.828 45.4905 120.42 46.0523C121.454 47.0346 123.634 48.2922 124.741 48.5457C125.021 48.6098 125.296 48.7351 125.352 48.8241C125.407 48.9132 125.692 48.986 125.985 48.986C126.277 48.986 126.568 49.068 126.63 49.1681C126.693 49.2683 126.909 49.3502 127.11 49.3502C127.947 49.3502 129.609 50.474 129.677 51.0859C129.827 52.4405 129.222 52.8102 126.859 52.8102C124.619 52.8102 123.133 52.3273 121.436 51.0482L120.592 50.4124L120.014 51.0249C119.696 51.3618 118.981 52.1676 118.424 52.8155C117.867 53.4636 117.266 54.1265 117.087 54.2884C116.635 54.6975 116.679 54.8387 117.417 55.3597C117.772 55.6101 118.277 55.9894 118.54 56.2028C119.516 56.9959 122.107 58.0738 123.064 58.0852C123.335 58.0885 123.586 58.179 123.622 58.2864C123.717 58.5673 129.805 58.5804 130.089 58.3005C130.206 58.1854 130.528 58.0912 130.807 58.0912C131.085 58.0912 131.36 58.0157 131.417 57.9232C131.475 57.8306 131.771 57.7012 132.074 57.6354C132.377 57.5697 132.625 57.4406 132.625 57.3484C132.625 57.2561 132.73 57.1807 132.858 57.1807C132.985 57.1807 133.314 56.9758 133.587 56.7255C133.861 56.4751 134.152 56.2702 134.233 56.2702C134.315 56.2702 134.547 56.0518 134.749 55.7849C134.95 55.5179 135.198 55.2107 135.3 55.102C135.604 54.7758 136.13 53.5516 136.13 53.1682C136.13 52.9714 136.213 52.8102 136.314 52.8102C136.55 52.8102 136.56 50.0029 136.325 49.5753C136.23 49.4014 136.006 48.9108 135.829 48.4852C135.651 48.0597 135.438 47.7113 135.357 47.7113C135.274 47.7113 135.208 47.6197 135.208 47.5077C135.208 47.1067 132.421 44.9797 131.896 44.9797C131.79 44.9797 131.703 44.8978 131.703 44.7976C131.703 44.6975 131.577 44.6155 131.424 44.6155C131.27 44.6155 131 44.5436 130.824 44.4556C130.047 44.0676 129.086 43.705 128.835 43.705C128.685 43.705 128.418 43.6313 128.242 43.5411C128.066 43.4508 127.444 43.229 126.861 43.0482C126.277 42.8671 125.8 42.6541 125.8 42.5747C125.8 42.4953 125.711 42.4303 125.603 42.4303C125.372 42.4303 125.06 42.1185 124.749 41.5753C124.577 41.2754 124.577 41.0862 124.749 40.7243C125.069 40.0513 125.703 39.7894 127.003 39.7929C128.267 39.7963 129.94 40.4725 130.748 41.3074L131.177 41.7505L132.036 40.9523C132.508 40.5133 132.926 40.0879 132.963 40.007C133.001 39.9262 133.224 39.6699 133.46 39.4374C133.695 39.205 134.143 38.7286 134.454 38.3786L135.019 37.7427L134.413 37.1272C133.745 36.4509 133.407 36.212 132.441 35.7369C132.086 35.5622 131.754 35.3743 131.703 35.3195C131.511 35.1122 129.28 34.5998 128.57 34.5998C128.163 34.5998 127.829 34.5178 127.829 34.4177C127.829 34.3175 127.373 34.2356 126.815 34.2356C126.257 34.2356 125.8 34.3175 125.8 34.4177ZM162.968 34.4177C162.906 34.5178 162.609 34.5998 162.309 34.5998C161.384 34.5998 159.518 35.1915 158.357 35.8527C157.748 36.1996 157.223 36.5512 157.189 36.6341C157.155 36.7171 157.021 36.785 156.89 36.785C156.63 36.785 155.16 38.1752 154.446 39.0959C153.834 39.8854 152.731 42.0378 152.731 42.4436C152.731 42.6248 152.659 42.8169 152.571 42.8706C151.993 43.2232 151.967 48.6142 152.536 49.9876C152.619 50.1879 152.831 50.7206 153.008 51.1713C153.498 52.4229 153.701 52.8102 153.869 52.8102C153.953 52.8102 154.022 52.8976 154.022 53.0045C154.022 53.4066 155.386 54.9747 156.546 55.906C157.045 56.3066 158.287 57.0665 158.818 57.2954C159.072 57.4049 159.593 57.6287 159.977 57.7928C160.361 57.957 160.875 58.0912 161.119 58.0912C161.363 58.0912 161.614 58.1732 161.677 58.2733C161.745 58.3815 162.905 58.4554 164.536 58.4554C166.167 58.4554 167.328 58.3815 167.395 58.2733C167.458 58.1732 167.749 58.0912 168.041 58.0912C168.333 58.0912 168.618 58.0186 168.674 57.9297C168.729 57.841 169.066 57.7143 169.422 57.6484C169.779 57.5824 170.07 57.4502 170.07 57.3546C170.07 57.259 170.236 57.1807 170.439 57.1807C170.642 57.1807 170.808 57.1077 170.808 57.0183C170.808 56.929 171.015 56.8045 171.269 56.7417C171.523 56.6788 171.73 56.547 171.73 56.4488C171.73 56.3505 171.813 56.2702 171.913 56.2702C172.564 56.2702 175.604 52.8275 175.604 52.0905C175.604 51.9856 175.666 51.8997 175.743 51.8997C175.912 51.8997 176.337 50.7552 176.47 49.9404C176.523 49.6139 176.641 49.3018 176.731 49.2468C176.972 49.0997 176.932 44.1177 176.684 43.3537C176.376 42.4088 175.541 40.3514 175.421 40.245C175.365 40.1949 175.163 39.9081 174.973 39.6077C174.346 38.6134 172.066 36.4877 171.246 36.132C170.804 35.9403 170.442 35.7219 170.441 35.6469C170.44 35.5719 170.287 35.5103 170.101 35.5103C169.915 35.5103 169.709 35.4573 169.643 35.3925C169.387 35.1397 167.544 34.6115 166.899 34.6058C166.525 34.6025 166.167 34.5178 166.104 34.4177C166.041 34.3175 165.336 34.2356 164.536 34.2356C163.737 34.2356 163.031 34.3175 162.968 34.4177ZM190.729 34.4108C190.577 34.4954 190.089 34.6712 189.644 34.8014C189.2 34.9316 188.728 35.1445 188.597 35.2743C188.465 35.4041 188.296 35.5103 188.221 35.5103C187.923 35.5103 185.935 37.7651 185.931 38.1073C185.928 38.2796 185.892 38.2776 185.777 38.0984C185.694 37.9695 185.665 37.2114 185.711 36.4139L185.796 34.964H182.36H178.924V46.5276V58.0912H182.322H185.721L185.781 51.414C185.827 46.2769 185.894 44.7191 186.072 44.6609C186.199 44.6193 186.302 44.3872 186.302 44.1452C186.302 43.9031 186.367 43.705 186.445 43.705C186.523 43.705 186.736 43.4386 186.917 43.1132C187.266 42.4867 188.518 41.5198 188.979 41.5198C189.13 41.5198 189.254 41.4378 189.254 41.3377C189.254 41.2375 189.498 41.1555 189.796 41.1555C190.095 41.1555 190.39 41.0736 190.453 40.9734C190.515 40.8733 190.935 40.7913 191.386 40.7913H192.205V37.5135V34.2356L191.605 34.2463C191.276 34.2522 190.881 34.3263 190.729 34.4108ZM203.272 34.4177C203.12 34.5148 202.648 34.5954 202.223 34.5971C201.797 34.5985 201.404 34.6725 201.349 34.7613C201.293 34.85 200.95 34.9778 200.586 35.0452C200.222 35.1126 199.661 35.3164 199.339 35.4979C197.785 36.374 197.556 36.5215 197.555 36.6485C197.555 36.7235 197.468 36.785 197.363 36.785C196.975 36.785 194.943 39.057 194.553 39.9263C194.43 40.2017 194.266 40.4271 194.189 40.4271C194.112 40.4271 194.05 40.5746 194.05 40.7549C194.05 40.9352 193.978 41.1605 193.891 41.2557C193.267 41.9344 192.402 48.0755 192.93 48.0755C193.038 48.0755 193.13 48.4239 193.133 48.8494C193.139 49.5662 193.656 51.3896 193.93 51.6604C193.996 51.7252 194.05 51.9285 194.05 52.1122C194.05 52.2958 194.133 52.446 194.234 52.446C194.335 52.446 194.418 52.5336 194.418 52.6409C194.418 53.3567 197.028 56.1109 198.246 56.6808C198.474 56.7876 198.661 56.9438 198.661 57.0279C198.661 57.1119 198.785 57.1807 198.938 57.1807C199.09 57.1807 199.215 57.2421 199.216 57.3173C199.217 57.3925 199.736 57.6048 200.369 57.7895C201.002 57.9741 201.757 58.2129 202.046 58.32C202.738 58.5764 208.419 58.5461 208.684 58.2848C208.792 58.1783 209.061 58.0912 209.281 58.0912C210.301 58.0912 213.153 56.4446 214.155 55.2781C214.409 54.9827 214.803 54.5562 215.032 54.3302C215.584 53.7837 215.554 53.5193 214.893 53.0834C214.589 52.8831 214.341 52.6578 214.34 52.5826C214.34 52.5074 214.235 52.446 214.107 52.446C213.98 52.446 213.651 52.2411 213.378 51.9907C213.104 51.7404 212.801 51.5355 212.703 51.5355C212.606 51.5355 212.498 51.4705 212.465 51.3911C212.431 51.3117 212.102 51.0655 211.734 50.844L211.066 50.4412L210.418 51.1704C210.062 51.5715 209.688 51.8997 209.588 51.8997C209.487 51.8997 209.301 52.0226 209.175 52.1728C209.049 52.3231 208.79 52.446 208.599 52.446C208.409 52.446 208.253 52.528 208.253 52.6281C208.253 52.7283 208.092 52.8102 207.895 52.8102C207.698 52.8102 207.485 52.8922 207.423 52.9923C207.259 53.2533 204.224 53.2121 203.457 52.9386C202.093 52.452 201.501 51.9789 200.675 50.716C200.291 50.1278 199.768 48.6646 199.768 48.1769C199.768 48.1212 203.42 48.0755 207.884 48.0755H216V46.1782C216 43.6207 215.448 41.3138 214.391 39.4536C214.059 38.8681 213.787 38.347 213.787 38.2954C213.787 38.0971 211.53 36.0677 211.192 35.9618C210.996 35.9004 210.835 35.7736 210.835 35.6802C210.835 35.5868 210.686 35.5103 210.503 35.5103C210.321 35.5103 210.092 35.4402 209.996 35.3546C209.692 35.0849 207.935 34.5998 207.261 34.5998C206.905 34.5998 206.563 34.5178 206.5 34.4177C206.354 34.1842 203.638 34.1842 203.272 34.4177ZM25.6892 42.9311C25.7721 51.833 25.7695 51.8114 27.0856 54.4204C27.5792 55.3986 29.1397 57.1807 29.5029 57.1807C29.6101 57.1807 29.6977 57.2503 29.6977 57.3351C29.6977 57.4697 30.1867 57.7085 31.6345 58.2806C32.255 58.5259 33.4315 58.6998 34.4014 58.69C35.7077 58.6767 37.2605 58.4378 37.2605 58.2502C37.2605 58.1628 37.3783 58.0912 37.5222 58.0912C37.7653 58.0912 38.8959 57.57 39.1049 57.3617C39.1558 57.3111 39.5293 57.0285 39.9351 56.7338C40.3409 56.439 40.8072 56.0502 40.9712 55.8697C41.1354 55.6895 41.322 55.5418 41.3862 55.5418C41.4504 55.5418 41.503 56.1154 41.503 56.8165V58.0912H44.9155H48.3279V46.5276V34.964H44.9155H41.503V42.2507C41.503 46.2583 41.4292 49.6797 41.339 49.8536C41.2488 50.0275 41.0204 50.4851 40.8317 50.8706C40.466 51.6174 39.7185 52.3102 38.591 52.9468C38.1103 53.2181 35.6003 53.2564 35.6003 52.9923C35.6003 52.8922 35.4413 52.8102 35.2469 52.8102C34.8033 52.8102 33.546 51.624 33.2201 50.8981C33.0853 50.5976 32.9015 50.2096 32.8119 50.0357C32.7222 49.8618 32.649 46.3994 32.649 42.3418V34.964H29.1321H25.6153L25.6892 42.9311ZM90.7265 40.2315C91.4499 40.5959 92.5978 41.5618 92.5978 41.806C92.5978 41.8832 92.7109 42.0757 92.8492 42.2338C92.9874 42.392 93.1513 42.7877 93.2135 43.1132L93.3264 43.705H88.7196H84.1127L84.1262 43.2953C84.1336 43.0698 84.2987 42.6397 84.4931 42.3392C84.6875 42.0387 84.9039 41.67 84.9741 41.5198C85.1911 41.0552 86.0244 40.4157 86.5568 40.3049C86.8357 40.247 87.064 40.1278 87.064 40.0402C87.064 39.9526 87.7314 39.8808 88.5471 39.8808C89.647 39.8808 90.21 39.9713 90.7265 40.2315ZM206.905 40.2804C207.685 40.7241 208.622 41.5984 208.622 41.8823C208.622 41.9834 208.692 42.0661 208.777 42.0661C208.909 42.0661 209.36 43.2436 209.36 43.5896C209.36 43.6531 207.25 43.705 204.672 43.705H199.984L200.151 43.2042C200.485 42.2012 200.551 42.0661 200.712 42.0661C200.801 42.0661 200.874 41.9495 200.874 41.8071C200.874 41.4577 202.332 40.245 202.752 40.245C202.937 40.245 203.088 40.1631 203.088 40.0629C203.088 39.9558 203.73 39.8808 204.645 39.8808C205.912 39.8808 206.334 39.9553 206.905 40.2804ZM64.7235 40.5459C65.2423 40.7112 65.667 40.9161 65.667 41.0011C65.667 41.086 65.7536 41.1555 65.8595 41.1555C66.3994 41.1555 67.515 42.6792 67.9633 44.0291C68.4432 45.474 68.3041 48.3907 67.6967 49.6234C67.4499 50.1242 67.0998 50.6927 66.9187 50.887C66.7375 51.0811 66.5892 51.3064 66.5892 51.3878C66.5892 51.469 66.5027 51.5355 66.397 51.5355C66.2913 51.5355 66.0248 51.7012 65.8046 51.9037C65.5843 52.1062 65.0879 52.3218 64.7015 52.3828C64.3149 52.444 63.9541 52.5651 63.8997 52.652C63.7694 52.8599 62.2134 52.857 62.0829 52.6487C62.0274 52.56 61.6972 52.4345 61.3493 52.3701C60.0362 52.127 57.9197 49.4622 57.9197 48.0522C57.9197 47.7763 57.8367 47.5001 57.7353 47.4381C57.6338 47.3762 57.5508 46.8845 57.5508 46.3455C57.5508 45.8065 57.6338 45.3148 57.7353 45.2529C57.8367 45.191 57.9197 44.9069 57.9197 44.6215C57.9197 43.5815 59.5273 41.1555 60.2164 41.1555C60.3566 41.1555 60.5001 41.0707 60.5352 40.9669C60.6364 40.6666 61.992 40.2618 62.925 40.253C63.3954 40.2487 64.2046 40.3803 64.7235 40.5459ZM167.031 40.7926C168.05 41.3562 169.383 42.7446 169.739 43.614C170.244 44.8457 170.485 46.0155 170.382 46.7432C170.15 48.3955 169.597 50.0787 169.287 50.0787C169.21 50.0787 169.148 50.167 169.148 50.275C169.148 50.8522 166.909 52.446 166.098 52.446C165.922 52.446 165.45 52.5431 165.049 52.6618C164.486 52.8281 164.239 52.8281 163.969 52.6618C163.777 52.5431 163.402 52.446 163.137 52.446C162.582 52.446 161.401 51.9361 161.401 51.6968C161.401 51.6081 161.302 51.5355 161.182 51.5355C160.878 51.5355 160.109 50.7952 160.109 50.5022C160.109 50.3695 160.039 50.2608 159.954 50.2608C159.868 50.2608 159.649 49.9535 159.466 49.5779C159.283 49.2024 159.062 48.7528 158.975 48.5788C158.761 48.1474 158.775 44.6873 158.994 44.2943C159.09 44.1204 159.316 43.6504 159.496 43.2497C159.877 42.4017 161.056 41.1555 161.478 41.1555C161.638 41.1555 161.769 41.0856 161.769 41C161.769 40.9144 162.164 40.7092 162.646 40.544C163.875 40.1225 166.041 40.2454 167.031 40.7926ZM73.9676 60.0547C73.2867 60.5056 72.8608 61.018 72.8608 61.3862C72.8608 61.5652 72.7778 61.7625 72.6763 61.8244C72.5749 61.8863 72.4919 62.5056 72.4919 63.2009V64.4649H71.9275C71.3879 64.4649 71.3654 64.4951 71.4202 65.1478C71.4698 65.7407 71.5441 65.8383 71.9846 65.8882L72.4919 65.9459V68.9385V71.9312H73.4096H74.3272L74.378 68.972L74.4287 66.0128L75.2588 65.9217C76.0656 65.8332 76.0905 65.8115 76.146 65.1478L76.2034 64.4649H75.3818C74.4571 64.4649 74.3365 64.3146 74.3365 63.1632C74.3365 61.9161 74.8282 61.2995 75.6813 61.4766C76.2183 61.588 76.6226 61.3693 76.9307 60.8009C77.0642 60.5547 77.0087 60.3857 76.7014 60.1031C76.1875 59.6304 74.6493 59.6032 73.9676 60.0547ZM98.9155 60.0328C98.7376 60.1037 98.6849 61.4758 98.6849 66.0279V71.9312H99.6072H100.529V65.9217V59.9123L99.8377 59.9267C99.4574 59.9345 99.0424 59.9824 98.9155 60.0328ZM81.5303 66.2859V71.9312H84.5739H87.6174V71.1312C87.6174 70.5697 87.5304 70.2982 87.3256 70.2206C87.1651 70.1598 86.2106 70.1101 85.2043 70.1101H83.3749V65.6635C83.3749 63.2178 83.3245 61.0872 83.2629 60.9288C83.1843 60.7266 82.9093 60.6407 82.3406 60.6407H81.5303V66.2859ZM88.6605 61.338C88.2235 61.8145 88.2728 62.7358 88.759 63.183C89.2204 63.6074 89.4469 63.6363 90.0801 63.3515C90.5593 63.1359 90.8336 62.3395 90.6213 61.7808C90.3245 61 89.2027 60.7465 88.6605 61.338ZM66.1281 64.2828C66.0654 64.3829 65.8147 64.4649 65.5709 64.4649C65.0621 64.4649 63.4535 65.9051 63.4535 66.3608C63.4535 66.5199 63.3705 66.6501 63.269 66.6501C63.1605 66.6501 63.0845 67.2875 63.0845 68.198C63.0845 69.1085 63.1605 69.7459 63.269 69.7459C63.3705 69.7459 63.4548 69.8484 63.4564 69.9735C63.4603 70.2764 64.335 71.2173 65.0059 71.6402C65.7693 72.1213 68.1523 72.1193 68.9105 71.6369C70.3832 70.6998 70.9078 69.7963 70.9111 68.192C70.9133 67.1285 70.8299 66.77 70.4191 66.0781C70.1472 65.62 69.7186 65.1117 69.4666 64.9487C68.3984 64.2577 66.3941 63.8579 66.1281 64.2828ZM93.3742 64.4734C92.4104 64.8959 91.9618 65.7531 92.158 66.7964C92.3137 67.6246 92.6719 67.9433 94.3887 68.7809C95.4943 69.3203 95.7336 69.5139 95.7336 69.8692C95.7336 70.6894 93.9925 70.8414 93.314 70.0804C92.9127 69.6304 92.4843 69.6592 91.9656 70.1713C91.4244 70.7056 91.5921 71.0605 92.6345 71.5853C93.6643 72.1042 95.6535 72.1439 96.4019 71.6607C97.2867 71.0893 97.4136 70.8799 97.435 69.9562C97.4568 69.0082 96.887 67.9249 96.3666 67.9249C96.2213 67.9249 96.1025 67.8429 96.1025 67.7428C96.1025 67.6426 95.9571 67.5541 95.7797 67.5459C95.6022 67.5379 95.1249 67.3529 94.719 67.1347C94.1633 66.8359 93.9812 66.6261 93.9812 66.2843C93.9812 65.903 94.0795 65.8214 94.598 65.7724C94.9854 65.7356 95.3416 65.8274 95.5559 66.0188C95.8778 66.3065 95.93 66.2932 96.4797 65.7862L97.0622 65.2488L96.5574 64.8568C96.2799 64.6413 95.9029 64.4649 95.7196 64.4649C95.5364 64.4649 95.3351 64.3829 95.2724 64.2828C95.0977 64.0036 94.252 64.0885 93.3742 64.4734ZM104.695 64.2593C104.64 64.3465 104.363 64.4638 104.079 64.5199C103.461 64.6419 102.51 65.4992 102.076 66.3258C101.691 67.0579 101.607 69.5844 101.963 69.7017C102.088 69.7426 102.19 69.8987 102.19 70.0482C102.19 70.4104 103.064 71.2565 103.857 71.6622C104.699 72.0929 106.863 72.0972 107.7 71.67C108.545 71.2386 109.015 70.805 109.015 70.4567C109.015 70.0786 107.841 69.4664 107.764 69.8038C107.735 69.9276 107.363 70.1784 106.936 70.3609C105.777 70.8566 104.835 70.6759 104.074 69.8126C103.041 68.64 103.172 68.5691 106.481 68.5121C109.314 68.4632 109.383 68.4526 109.383 68.0698C109.383 67.2385 108.726 65.6231 108.186 65.1261C107.344 64.3516 105.001 63.77 104.695 64.2593ZM88.5397 68.198V71.9312H89.5542H90.5687V68.198V64.4649H89.5542H88.5397V68.198ZM68.0699 66.0508C68.9119 66.6254 69.0519 66.8657 69.1373 67.8833C69.2836 69.6241 68.5441 70.4743 66.8842 70.4743C64.6858 70.4743 63.9137 67.213 65.8385 66.0576C66.4776 65.6739 67.513 65.6708 68.0699 66.0508ZM106.885 66.2031C107.143 66.458 107.354 66.8268 107.354 67.0225C107.354 67.3503 107.219 67.3784 105.648 67.3758C104.71 67.3742 103.817 67.2935 103.665 67.1964C103.481 67.0788 103.465 67.0191 103.619 67.0171C103.746 67.0156 103.85 66.8694 103.85 66.6924C103.85 66.224 104.745 65.75 105.64 65.7445C106.229 65.7407 106.528 65.8511 106.885 66.2031Z" fill="white"/>
</svg>
