<svg width="224" height="42" viewBox="0 0 224 42" fill="none" xmlns="http://www.w3.org/2000/svg">
<path fill-rule="evenodd" clip-rule="evenodd" d="M21.8086 41.7992L10.7908 29.178L9.278 39.677L0 37.5217L2.36878 22.0804C2.86087 20.3691 2.70748 19.2505 2.00744 18.6365C1.11954 18.0433 0.440094 17.2392 0.0283101 16.1652L3.42141 15.1543L5.07112 0.943584L14.4505 0.61562L13.0191 13.9735L28.5865 2.26788L33.112 9.13491C32.7049 10.0701 31.4855 11.0882 29.5805 12.1767L16.6278 21.9193L28.6349 35.7829L21.8086 41.7992ZM150.266 40.8237L138.205 25.1716C137.128 27.1497 136.212 29.1009 135.382 31.0371C134.263 33.7562 133.057 36.2426 131.787 38.5518L123.211 35.71L134.484 8.88219C132.598 8.53876 130.923 8.54773 129.169 8.55712C127.715 8.5649 126.208 8.57297 124.482 8.38118C125.693 5.36888 126.985 2.64828 128.35 0.197617C131.048 0.38932 133.747 0.350464 136.445 0.209023C137.351 0.185806 138.248 0.152283 139.143 0.118862L139.143 0.118839C142.7 -0.0140839 146.213 -0.145363 150.08 0.379993C157.743 1.22762 159.396 5.74244 157.58 11.8328C155.938 16.6746 151.825 19.2656 147.325 21.5028L157.062 34.31C155.629 36.3089 154.147 37.5319 152.578 38.8263C151.828 39.445 151.059 40.0799 150.266 40.8237ZM52.8529 11.9539C51.2511 20.1441 49.884 28.3018 48.6425 36.4403C51.2058 36.5807 53.7692 36.6201 56.3325 36.4714L58.499 25.4455L63.9387 36.4532C66.4804 36.5854 69.0227 36.5962 71.5644 36.447C73.1436 28.2391 74.5751 20.0436 75.8047 11.8663C73.1122 11.5694 70.5766 11.6129 68.1301 11.8508L65.9121 23.4404L59.9469 11.8451C57.5015 11.7321 55.1023 11.7046 52.8529 11.9539ZM74.9518 36.4403C76.1934 28.3018 77.5605 20.1441 79.1623 11.9539C81.4117 11.7046 83.8108 11.7321 86.2563 11.8451L92.2215 23.4404L94.4395 11.8508C96.886 11.6129 99.4215 11.5694 102.114 11.8663C100.819 20.1131 99.3968 28.3028 97.8738 36.447C95.332 36.5962 92.7898 36.5854 90.248 36.4532L84.8084 25.4455L82.6419 36.4714C80.0785 36.6201 77.5152 36.5807 74.9518 36.4403ZM156.513 19.6374C154.852 23.7057 155.086 27.2148 156.489 30.3784C158.743 34.7772 162.557 36.5113 166.979 36.5548C172.635 36.6496 177.776 33.7632 180.13 28.3267C181.535 24.6274 181.517 20.2224 180.12 17.4707C177.981 13.2533 174.375 11.5036 169.607 11.3969C162.588 11.2669 158.568 14.9211 156.513 19.6374ZM105.716 36.3938C105.975 33.5271 106.554 30.6593 107.277 27.7926C107.775 25.6409 107.495 24.4363 106.8 22.9597L102.866 11.9498L103.088 11.7483C104.118 11.7802 105.142 11.7672 106.168 11.7542C107.676 11.7351 109.191 11.7159 110.74 11.839C111.294 12.8785 111.706 14.1046 112.135 15.3847L112.135 15.3848L112.135 15.3849C112.385 16.1291 112.641 16.8916 112.935 17.6465C113.765 16.7491 114.596 15.6937 115.426 14.4772C116.065 13.4674 116.75 12.5571 117.471 11.7307C120.062 11.6825 122.684 11.6804 125.378 11.7882L116.165 24.2917C115.389 25.301 115.139 27.0118 114.863 29.5604C114.571 31.7261 114.135 34.0364 113.637 36.4093C111.058 36.6114 108.416 36.6005 105.716 36.3938ZM33.9341 11.9819C32.2138 20.1344 30.8436 28.2879 29.6953 36.4404C34.9002 36.5487 40.1062 36.5689 45.3111 36.429C45.8027 34.4358 46.1486 32.4426 46.3159 30.4495C44.5398 30.2148 43.0961 30.2468 41.6706 30.2785C40.6793 30.3005 39.6969 30.3224 38.6176 30.2541C38.6572 29.1542 38.772 28.1221 39.209 27.3885C40.862 27.1943 42.6048 27.2319 44.412 27.2708C45.0781 27.2852 45.753 27.2998 46.4353 27.303C46.9505 25.4735 47.3175 23.4669 47.4838 21.2209C45.8914 20.9899 44.5526 21.0106 43.1798 21.0319H43.1797H43.1797C42.2339 21.0466 41.2719 21.0615 40.1999 20.9945C40.2833 19.951 40.4356 18.92 40.8793 17.9402C43.7855 17.933 46.5465 17.9076 48.6003 17.7925L49.5715 11.8814C44.0892 11.7104 38.7643 11.6602 33.9341 11.9819ZM186.133 35.5585C183.85 34.9373 182.382 34.0632 181.127 33.1229C181.486 32.5036 181.79 31.84 182.1 31.164C182.545 30.1941 183.002 29.1985 183.65 28.2713C184.555 28.5148 185.53 28.9547 186.55 29.5194C188.143 30.4225 189.778 30.8012 191.483 30.324C192.352 29.9665 192.93 29.4489 192.688 28.4671C192.468 27.8713 191.633 27.39 189.976 27.062C187.98 26.7081 186.156 25.9988 184.837 24.2544C183.382 22.2115 183.226 19.2204 184.558 16.6423C185.819 14.2403 187.596 12.5824 191.013 11.7073C194.968 10.9047 199.115 11.6493 203.081 13.5647C202.288 15.4983 201.437 17.2329 200.518 18.7329C199.513 18.6774 198.419 18.308 197.286 17.7982C195.25 17.0407 193.33 16.8423 192.352 17.7982C191.755 18.4054 191.528 19.1587 192.586 19.8592C193.297 20.3359 194.765 20.7986 196.356 21.111C197.872 21.4545 199.275 22.0286 200.332 23.3181C201.849 25.0947 202.595 27.2247 202.239 29.8619C201.774 32.9374 199.71 34.6337 196.78 35.5818C193.218 36.646 189.67 36.5657 186.133 35.5585ZM202.046 33.1229C203.301 34.0632 204.769 34.9373 207.053 35.5585C210.589 36.5657 214.137 36.646 217.699 35.5818C220.629 34.6337 222.693 32.9374 223.158 29.8619C223.515 27.2247 222.768 25.0947 221.251 23.3181C220.195 22.0286 218.791 21.4545 217.275 21.111C215.684 20.7986 214.216 20.3359 213.505 19.8592C212.447 19.1587 212.674 18.4054 213.271 17.7982C214.249 16.8423 216.169 17.0407 218.205 17.7982C219.338 18.308 220.432 18.6774 221.437 18.7329C222.356 17.2329 223.207 15.4983 224 13.5647C220.034 11.6493 215.887 10.9047 211.932 11.7073C208.515 12.5824 206.739 14.2403 205.477 16.6423C204.145 19.2204 204.301 22.2115 205.756 24.2544C207.075 25.9988 208.899 26.7081 210.896 27.062C212.552 27.39 213.387 27.8713 213.607 28.4671C213.849 29.4489 213.271 29.9665 212.403 30.324C210.697 30.8012 209.062 30.4225 207.469 29.5194C206.449 28.9547 205.474 28.5148 204.569 28.2713C203.921 29.1985 203.464 30.1941 203.02 31.164C202.71 31.84 202.405 32.5036 202.046 33.1229ZM172.131 24.4777C172.765 21.1043 171.275 18.6479 169.027 18.6122C166.049 18.4749 164.068 21.0711 163.79 24.2228C163.653 26.9983 165.105 28.6386 167.287 28.7661C169.742 28.9055 171.529 27.4719 172.131 24.4777ZM143.61 9.05818C145.878 9.07061 147.72 9.39599 147.653 11.1177C147.29 13.0715 143.992 14.8543 141.153 14.6652C141.36 14.2121 141.552 13.6497 141.75 13.0693C141.92 12.5738 142.093 12.0652 142.285 11.6005C142.682 10.6358 143.075 9.78716 143.61 9.05818Z" fill="white"/>
</svg>
