<svg width="137" height="88" viewBox="0 0 137 88" fill="none" xmlns="http://www.w3.org/2000/svg">
<path fill-rule="evenodd" clip-rule="evenodd" d="M52.9173 80.3573C52.9173 82.6787 53.5738 84.5419 54.9 85.9275C56.2278 87.3139 58.0115 88 60.2346 88C61.8765 88 63.2516 87.6385 64.3491 86.9028C65.2592 86.2941 65.9479 85.4491 66.4146 84.372C66.4602 84.2678 66.3848 84.1509 66.2729 84.1509H64.0067C63.957 84.1509 63.9106 84.1744 63.8816 84.2148C63.5592 84.6562 63.1613 85.0119 62.6897 85.2834C62.0034 85.6794 61.1861 85.8804 60.2346 85.8804C58.7443 85.8804 57.5764 85.4272 56.7135 84.5326C56.0662 83.8625 55.6468 83.0007 55.4611 81.9388L55.3699 80.9711L66.5282 80.9711C66.6135 80.9711 66.6832 80.9004 66.6832 80.813C66.6832 80.7298 66.6881 80.6162 66.6972 80.4716C66.7072 80.3237 66.7122 80.2068 66.7122 80.1227C66.7122 77.7307 66.1245 75.8625 64.9268 74.5433C63.7291 73.2207 62.0315 72.5691 59.8583 72.5691C57.7836 72.5691 56.1002 73.2838 54.8237 74.7198C53.5481 76.1534 52.9173 78.0392 52.9173 80.3573ZM0 80.2993C0 82.6375 0.618334 84.5133 1.87075 85.909C3.12483 87.3072 4.82069 88 6.94093 88C9.06034 88 10.7562 87.3097 12.0103 85.9165C13.2635 84.525 13.8819 82.6467 13.881 80.2993C13.8819 77.9425 13.2635 76.0567 12.0103 74.6601C10.7562 73.2627 9.06117 72.5691 6.94093 72.5691C4.82981 72.5691 3.13643 73.2653 1.87821 74.6677C0.620821 76.0684 0 77.9518 0 80.2993ZM71.0065 85.7686C69.8436 84.2879 69.2659 82.4214 69.2659 80.1816C69.2659 77.9241 69.8353 76.076 70.9866 74.6526C72.1396 73.2266 73.6382 72.5111 75.4691 72.5111C76.516 72.5111 77.4535 72.7617 78.2765 73.267C78.8932 73.647 79.4063 74.1456 79.8166 74.761L79.8969 74.9014L79.8704 65.8445C79.8704 65.7571 79.94 65.6865 80.0263 65.6865H82.0089C82.0943 65.6865 82.1639 65.7571 82.1639 65.8437V87.2408C82.1639 87.3282 82.0943 87.3988 82.0089 87.3988H80.0843C79.9964 87.3988 79.926 87.3249 79.9284 87.2357L79.9914 85.3255L79.9202 85.4667C79.4958 86.189 78.9769 86.7598 78.3611 87.1744C77.5405 87.7276 76.555 88 75.4111 88C73.6432 88 72.1727 87.2525 71.0065 85.7686ZM94.2811 80.2993C94.2811 82.6375 94.8994 84.5133 96.1518 85.909C97.4059 87.3072 99.1018 88 101.222 88C103.341 88 105.037 87.3097 106.291 85.9165C107.545 84.525 108.163 82.6467 108.162 80.2993C108.163 77.9426 107.545 76.0567 106.291 74.6601C105.037 73.2628 103.342 72.5691 101.222 72.5691C99.1109 72.5691 97.4175 73.2653 96.1593 74.6677C94.9019 76.0685 94.2811 77.9518 94.2811 80.2993ZM122.113 85.7686C120.95 84.2879 120.372 82.4214 120.372 80.1816C120.372 77.9241 120.942 76.076 122.093 74.6526C123.246 73.2266 124.744 72.5111 126.575 72.5111C127.622 72.5111 128.56 72.7617 129.383 73.267C129.999 73.647 130.512 74.1456 130.923 74.761L131.003 74.9014L130.977 65.8445C130.977 65.7571 131.046 65.6865 131.132 65.6865H133.115C133.2 65.6865 133.27 65.7571 133.27 65.8437V87.2408C133.27 87.3282 133.2 87.3988 133.115 87.3988H131.19C131.103 87.3988 131.032 87.3249 131.035 87.2357L131.098 85.3255L131.026 85.4667C130.602 86.189 130.083 86.7598 129.467 87.1744C128.647 87.7276 127.661 88 126.517 88C124.749 88 123.279 87.2525 122.113 85.7686ZM16.9644 75.3797V87.2701C16.9644 87.3575 17.034 87.4281 17.1202 87.4281H19.1319C19.2172 87.4281 19.2869 87.3575 19.2869 87.2701V75.3797H23.3127C23.398 75.3797 23.4677 75.3091 23.4677 75.2217L23.4677 73.2988C23.4677 73.2122 23.398 73.1416 23.3127 73.1416H19.2869V69.6885C19.2869 68.8796 19.4692 68.2835 19.8132 67.8766C20.1538 67.473 20.642 67.2637 21.3018 67.2637C21.5563 67.2637 21.8472 67.3023 22.1755 67.3839C22.502 67.4646 22.8609 67.5907 23.2497 67.7639C23.3524 67.8102 23.4677 67.7337 23.4677 67.6193V65.6082C23.4677 65.5392 23.4229 65.4787 23.3582 65.4577C22.9189 65.3198 22.5045 65.2172 22.1149 65.1525C21.7262 65.0877 21.354 65.0549 20.9976 65.0549C19.6855 65.0549 18.6702 65.4316 17.9806 66.2076C17.2943 66.982 16.9644 68.1229 16.9644 69.6002V73.1416H15.3406C15.2544 73.1416 15.1848 73.2122 15.1848 73.2988V75.2217C15.1848 75.3091 15.2544 75.3797 15.3406 75.3797H16.9644ZM34.1236 87.2701V65.8436C34.1236 65.757 34.1932 65.6864 34.2794 65.6864H42.0484C44.2357 65.6864 45.9175 66.137 47.0705 67.0636C48.2292 67.9943 48.8003 69.358 48.8003 71.1271C48.8003 72.2403 48.5251 73.1895 47.9673 73.9639C47.5496 74.5457 46.9743 75.0249 46.2482 75.4041L45.8769 75.5706L46.5657 75.7404C47.5703 76.0717 48.4008 76.609 49.0506 77.3547C49.9185 78.3519 50.3486 79.5853 50.3486 81.0474C50.3486 83.3277 49.6897 84.9857 48.3378 85.9753C46.9984 86.9539 44.7007 87.4281 41.4839 87.4281H34.2794C34.1932 87.4281 34.1236 87.3575 34.1236 87.2701ZM86.6563 75.3797V87.2701C86.6563 87.3575 86.7259 87.4281 86.8121 87.4281H88.8238C88.9092 87.4281 88.9788 87.3575 88.9788 87.2701V75.3797H92.3829C92.4683 75.3797 92.5379 75.3091 92.5379 75.2217V73.2988C92.5379 73.2122 92.4683 73.1416 92.3829 73.1416H88.9788V69.6885C88.9788 68.8796 89.1611 68.2835 89.5051 67.8766C89.8458 67.473 90.334 67.2637 90.9938 67.2637C91.2482 67.2637 91.5392 67.3023 91.8674 67.3839C92.194 67.4646 92.5529 67.5907 92.9416 67.7639C93.0444 67.8102 93.1596 67.7337 93.1596 67.6193V65.6082C93.1596 65.5392 93.1148 65.4787 93.0502 65.4577C92.6109 65.3198 92.1964 65.2172 91.8069 65.1525C91.4181 65.0877 91.046 65.0549 90.6896 65.0549C89.3775 65.0549 88.3621 65.4316 87.6725 66.2076C86.9862 66.982 86.6563 68.1229 86.6563 69.6002V73.1416H85.0326C84.9464 73.1416 84.8767 73.2122 84.8767 73.2988V75.2217C84.8767 75.3091 84.9464 75.3797 85.0326 75.3797H86.6563ZM110.616 87.2701V73.2988C110.616 73.2122 110.685 73.1416 110.771 73.1416H112.812C112.898 73.1416 112.969 73.2139 112.967 73.3022L112.919 75.8119L113.188 75.3865C113.778 74.549 114.429 73.905 115.145 73.4585C116.101 72.8624 117.239 72.569 118.555 72.569H118.946C119.031 72.569 119.101 72.6396 119.101 72.7262V74.6197C119.101 74.7071 119.031 74.7777 118.946 74.7777H118.497C116.542 74.7777 115.151 75.2704 114.285 76.2239C113.417 77.179 112.967 78.726 112.967 80.9003V87.2701C112.967 87.3575 112.897 87.4281 112.812 87.4281H110.771C110.685 87.4281 110.616 87.3575 110.616 87.2701ZM11.4582 80.2698C11.4582 82.0262 11.0421 83.3976 10.2282 84.404C9.41506 85.407 8.32593 85.909 6.94089 85.909C5.56663 85.909 4.47999 85.4045 3.66853 84.3972C2.85375 83.3849 2.43766 82.0161 2.43766 80.2698C2.43766 78.5244 2.85375 77.1547 3.66853 76.1433C4.48082 75.1352 5.56663 74.6307 6.94089 74.6307C8.31515 74.6307 9.40345 75.1352 10.2207 76.1441C11.0413 77.1547 11.4582 78.5244 11.4582 80.2698ZM78.744 84.388C79.4899 83.3673 79.8704 81.9901 79.8704 80.2404C79.8704 78.5319 79.4858 77.1749 78.729 76.1534C77.9764 75.1335 77.0083 74.6307 75.8164 74.6307C74.6029 74.6307 73.6207 75.1343 72.8582 76.1542C72.0931 77.1758 71.7036 78.5328 71.7036 80.2404C71.7036 81.9178 72.1014 83.2782 72.8872 84.3359C73.6713 85.3911 74.6452 85.909 75.8164 85.909C77.029 85.909 78.0005 85.4062 78.744 84.388ZM105.739 80.2698C105.739 82.0262 105.323 83.3976 104.509 84.404C103.696 85.407 102.607 85.909 101.222 85.909C99.8478 85.909 98.7611 85.4045 97.9496 84.3972C97.1349 83.3849 96.7188 82.0161 96.7188 80.2698C96.7188 78.5244 97.1349 77.1547 97.9496 76.1433C98.7619 75.1352 99.8478 74.6307 101.222 74.6307C102.596 74.6307 103.685 75.1352 104.502 76.1441C105.322 77.1547 105.739 78.5244 105.739 80.2698ZM129.85 84.388C130.596 83.3673 130.977 81.9901 130.977 80.2404C130.977 78.5319 130.592 77.1749 129.835 76.1534C129.083 75.1335 128.115 74.6307 126.923 74.6307C125.709 74.6307 124.727 75.1343 123.964 76.1542C123.199 77.1758 122.81 78.5328 122.81 80.2404C122.81 81.9178 123.208 83.2782 123.993 84.3359C124.778 85.3911 125.752 85.909 126.923 85.909C128.135 85.909 129.107 85.4062 129.85 84.388ZM47.8389 81.0476C47.8389 82.4408 47.4012 83.4413 46.5491 84.0845C45.6871 84.7336 44.322 85.0724 42.4239 85.0724H36.4743V76.9942H42.4239C44.3112 76.9942 45.6739 77.3372 46.5409 77.9972C47.3987 78.6505 47.8389 79.6561 47.8389 81.0476ZM64.0921 78.9094L63.9744 78.0821C63.7697 77.1471 63.3768 76.3955 62.8016 75.8187C62.0349 75.0502 61.0121 74.6601 59.7141 74.6601C58.5362 74.6601 57.5532 75.0519 56.7542 75.8338C56.1541 76.4224 55.7123 77.1782 55.4321 78.1065L55.249 78.9094H64.0921ZM46.4787 71.5231C46.4787 72.6616 46.1181 73.4603 45.4235 73.9555C44.7157 74.46 43.5627 74.7265 41.9324 74.7265H36.4743V68.0415H41.3679C43.2014 68.0415 44.501 68.3299 45.2951 68.8797C46.0767 69.4212 46.4787 70.2897 46.4787 71.5231ZM0.61298 54.8611L0.61298 0H21.1274L21.1274 22.7011L32.9388 0H55.3182L41.3228 25.8961L55.9398 54.8611H32.9388L21.1274 29.007L21.1274 54.8611H0.61298ZM57.8048 -7.62939e-06L57.8048 54.861H78.3192L78.3192 -7.62939e-06L57.8048 -7.62939e-06ZM112.51 35.3127L108.158 11.3504L103.807 35.3127H112.51ZM93.8605 -7.62939e-06L80.1842 54.861L100.699 54.861L102.564 46.0328H113.753L115.618 54.861H136.133L122.456 -7.62939e-06H93.8605Z" fill="white"/>
</svg>
