<svg width="224" height="33" viewBox="0 0 224 33" fill="none" xmlns="http://www.w3.org/2000/svg">
<mask id="mask0_241_171" style="mask-type:alpha" maskUnits="userSpaceOnUse" x="0" y="0" width="224" height="33">
<rect width="224" height="32.3855" fill="#D9D9D9"/>
</mask>
<g mask="url(#mask0_241_171)">
<path d="M25.3794 30.0646V1.72726H19.3719L13.3644 16.8405L7.35688 1.72726H1.34937V30.0646H6.48787V14.2335C6.48787 13.2889 6.45009 12.0421 6.45009 12.0421H6.48787L11.7775 24.8883H14.9513L20.2409 12.0421H20.2787C20.2787 12.0421 20.2409 13.2889 20.2409 14.2335V30.0646H25.3794Z" fill="white"/>
<path d="M37.2501 30.0646V1.72726H31.7338V30.0646H37.2501Z" fill="white"/>
<path d="M56.8575 20.0899C56.8575 21.1478 56.7442 22.0924 56.4419 22.7347C55.7618 24.1704 54.6283 24.775 52.7014 24.775H49.0742V7.05468H52.7014C54.6283 7.05468 55.7618 7.65921 56.4419 9.09497C56.7442 9.73728 56.8575 10.6819 56.8575 11.7398V20.0899ZM52.5502 30.0646C57.0087 30.0646 60.1824 28.0999 61.6182 24.5105C62.0716 23.3392 62.3361 21.9412 62.3361 20.1654V11.6264C62.3361 9.85063 62.0716 8.45266 61.6182 7.28138C60.1824 3.69198 57.0087 1.72726 52.5502 1.72726H43.5956V30.0646H52.5502Z" fill="white"/>
<path d="M86.2354 25.1906C84.8752 25.1906 83.515 24.6238 82.8349 23.1881C82.4949 22.5458 82.4193 21.6012 82.4193 20.4677V11.3242C82.4193 10.1907 82.4949 9.2461 82.8349 8.60379C83.515 7.16803 84.8752 6.60128 86.2354 6.60128H86.651C87.9734 6.60128 89.3714 7.16803 90.0515 8.60379C90.3537 9.2461 90.4671 10.1907 90.4671 11.3242V20.4677C90.4671 21.6012 90.3537 22.5458 90.0515 23.1881C89.3714 24.6238 87.9734 25.1906 86.651 25.1906H86.2354ZM86.651 30.4424C90.2782 30.4424 93.792 28.4777 95.2655 24.8883C95.7567 23.717 95.9834 22.3191 95.9834 20.5433V11.2486C95.9834 9.4728 95.7567 8.07482 95.2655 6.90355C93.792 3.31415 90.2782 1.34943 86.651 1.34943H86.2354C82.6082 1.34943 79.0566 3.27637 77.583 6.90355C77.1296 8.07482 76.9029 9.4728 76.9029 11.2486V20.5433C76.9029 22.3191 77.1296 23.717 77.583 24.8883C79.0566 28.5155 82.6082 30.4424 86.2354 30.4424H86.651Z" fill="white"/>
<path d="M121.482 30.0646V1.72726H115.965V12.6466H107.426V1.72726H101.91V30.0646H107.426V17.9362H115.965V30.0646H121.482Z" fill="white"/>
<path d="M133.346 30.0646V1.72726H127.83V30.0646H133.346Z" fill="white"/>
<path d="M148.609 25.1906C147.248 25.1906 145.888 24.6238 145.208 23.1881C144.868 22.5458 144.792 21.6012 144.792 20.4677V11.3242C144.792 10.1907 144.868 9.2461 145.208 8.60379C145.888 7.16803 147.248 6.60128 148.609 6.60128H149.024C150.347 6.60128 151.745 7.16803 152.425 8.60379C152.727 9.2461 152.84 10.1907 152.84 11.3242V20.4677C152.84 21.6012 152.727 22.5458 152.425 23.1881C151.745 24.6238 150.347 25.1906 149.024 25.1906H148.609ZM149.024 30.4424C152.651 30.4424 156.165 28.4777 157.639 24.8883C158.13 23.717 158.357 22.3191 158.357 20.5433V11.2486C158.357 9.4728 158.13 8.07482 157.639 6.90355C156.165 3.31415 152.651 1.34943 149.024 1.34943H148.609C144.981 1.34943 141.43 3.27637 139.956 6.90355C139.503 8.07482 139.276 9.4728 139.276 11.2486V20.5433C139.276 22.3191 139.503 23.717 139.956 24.8883C141.43 28.5155 144.981 30.4424 148.609 30.4424H149.024Z" fill="white"/>
<path d="M192.006 30.0646V15.0647H182.295V19.9387H186.565V20.6566C186.565 23.8304 184.638 25.1528 182.598 25.1528H182.333C181.011 25.1528 179.575 24.5861 178.895 23.1503C178.593 22.508 178.442 21.5256 178.442 20.4677V11.2486C178.442 10.304 178.593 9.28389 178.895 8.67935C179.575 7.2436 180.935 6.63907 182.258 6.63907H182.711C183.996 6.63907 185.431 7.2436 186.074 8.67935C186.3 9.17054 186.414 9.96398 186.489 10.8708H192.081C192.006 9.20832 191.741 7.88591 191.363 6.90355C189.965 3.31415 186.338 1.34943 182.635 1.34943H182.333C178.668 1.34943 175.117 3.31415 173.643 6.90355C173.152 8.07482 172.925 9.4728 172.925 11.2486V20.5433C172.925 22.3191 173.152 23.717 173.643 24.8883C175.117 28.4777 178.668 30.4424 181.955 30.4424H182.22C184.978 30.4424 187.358 29.1956 188.681 26.9286H188.719L189.625 30.0646H192.006Z" fill="white"/>
<path d="M222.11 30.0646V1.72726H216.102L210.095 16.8405L204.087 1.72726H198.08V30.0646H203.218V14.2335C203.218 13.2889 203.181 12.0421 203.181 12.0421H203.218L208.508 24.8883H211.682L216.972 12.0421H217.009C217.009 12.0421 216.972 13.2889 216.972 14.2335V30.0646H222.11Z" fill="white"/>
<path d="M246.212 26.5886C244.436 26.5886 242.623 25.8329 241.754 23.9437C241.376 23.1125 241.187 22.0168 241.187 20.7322V11.0597C241.187 9.77507 241.338 8.67935 241.716 7.84813C242.585 5.95897 244.436 5.20331 246.212 5.20331H246.514C248.29 5.20331 250.142 5.99675 250.973 7.88591C251.275 8.60379 251.426 9.43502 251.502 10.3796H255.582C255.507 8.94384 255.28 7.77256 254.902 6.75241C253.618 3.23858 250.066 1.34943 246.514 1.34943H246.212C242.698 1.34943 239.298 3.27637 237.862 6.75241C237.409 7.88591 237.182 9.2461 237.182 11.0597V20.7322C237.182 22.5458 237.409 23.906 237.862 25.0394C239.26 28.5533 242.509 30.4424 246.023 30.4424H246.288C248.819 30.4424 251.162 29.3089 252.673 27.2309L253.618 30.0646H255.545V15.7448H246.363V19.5231H251.615V20.5055C251.615 25.1528 249.084 26.5886 246.514 26.5886H246.212Z" fill="white"/>
<path d="M280.827 29.989C279.769 29.1956 279.353 27.7976 279.24 26.3619L278.824 21.0722C278.598 18.1629 277.313 16.576 274.857 15.707V15.6692C277.653 14.3846 279.164 12.0421 279.164 9.2461C279.164 5.27887 276.784 2.86075 273.081 2.02952C272.174 1.84061 271.041 1.72726 269.756 1.72726H261.746V30.0646H265.751V17.8984H270.172C273.043 17.8984 274.63 18.8052 274.857 21.4878L275.31 26.6641C275.424 27.911 275.726 29.3089 276.444 30.0646H280.827V29.989ZM269.605 5.58114C270.588 5.58114 271.494 5.6567 272.137 5.80784C274.026 6.26123 275.159 7.43251 275.159 9.43502C275.159 12.1554 273.27 14.0446 269.794 14.0446H265.751V5.58114H269.605Z" fill="white"/>
<path d="M299.21 20.7322C299.21 22.0168 299.059 23.1503 298.681 23.9815C297.812 25.8707 295.96 26.5886 294.185 26.5886H293.882C292.107 26.5886 290.255 25.8707 289.386 23.9815C289.008 23.1503 288.857 22.0168 288.857 20.7322V11.0597C288.857 9.77507 289.008 8.64157 289.386 7.81034C290.255 5.92119 292.107 5.20331 293.882 5.20331H294.185C295.96 5.20331 297.812 5.92119 298.681 7.81034C299.059 8.64157 299.21 9.77507 299.21 11.0597V20.7322ZM284.852 20.7322C284.852 22.5458 285.079 23.906 285.532 25.0394C286.968 28.5155 290.368 30.4424 293.882 30.4424H294.185C297.698 30.4424 301.099 28.5155 302.535 25.0394C302.988 23.906 303.215 22.5458 303.215 20.7322V11.0597C303.215 9.2461 302.988 7.88591 302.535 6.75241C301.099 3.27637 297.698 1.34943 294.185 1.34943H293.882C290.368 1.34943 286.968 3.27637 285.532 6.75241C285.079 7.88591 284.852 9.2461 284.852 11.0597V20.7322Z" fill="white"/>
<path d="M323.512 20.7322C323.512 22.0168 323.361 23.1503 322.983 23.9815C322.114 25.8707 320.263 26.5886 318.487 26.5886H318.185C316.409 26.5886 314.558 25.8707 313.689 23.9815C313.311 23.1503 313.16 22.0168 313.16 20.7322V1.72726H309.155V20.7322C309.155 22.5458 309.381 23.906 309.835 25.0394C311.271 28.5155 314.671 30.4424 318.185 30.4424H318.487C322.001 30.4424 325.401 28.5155 326.837 25.0394C327.291 23.906 327.517 22.5458 327.517 20.7322V1.72726H323.512V20.7322Z" fill="white"/>
<path d="M337.865 15.1781V5.61892H342.399C344.137 5.61892 344.969 5.84562 345.687 6.26123C347.085 7.05468 347.954 8.60379 347.954 10.4552C347.954 12.231 347.085 13.7423 345.687 14.5357C344.969 14.9514 344.137 15.1781 342.399 15.1781H337.865ZM342.475 19.0697C344.477 19.0697 345.611 18.8808 346.593 18.503C349.88 17.2939 351.959 14.309 351.959 10.4552C351.959 6.52572 349.88 3.50307 346.593 2.29401C345.611 1.91617 344.402 1.72726 342.475 1.72726H333.86V30.0646H337.865V19.0697H342.475Z" fill="white"/>
</g>
</svg>
